<?xml version="1.0" encoding="utf-8"?>
<!-- Generator: Adobe Illustrator 16.0.4, SVG Export Plug-In . SVG Version: 6.00 Build 0)  -->
<!DOCTYPE svg PUBLIC "-//W3C//DTD SVG 1.1//EN" "http://www.w3.org/Graphics/SVG/1.1/DTD/svg11.dtd">
<svg version="1.1" id="_xF8FF_Watch_1_" xmlns="http://www.w3.org/2000/svg" xmlns:xlink="http://www.w3.org/1999/xlink" x="0px"
	 y="0px" width="214px" height="48px" viewBox="0 0 214 48" enable-background="new 0 0 214 48" xml:space="preserve">
<g id="_xF8FF_Watch">
	<g>
		<path fill="white" d="M77.232,36.347h-0.097l-5.888-23.458h-6.926l-5.864,23.458h-0.096l-5.454-23.458H45.62L54.79,45.73h6.878l6.057-22.448
			h0.12l6.057,22.448h6.926l9.146-32.842h-7.288L77.232,36.347z M164.275,12.359c-8.688,0-13.875,5.605-13.875,15.014v3.97
			c0,9.503,5.164,14.941,13.852,14.941c8.711,0,13.055-5.293,13.055-11.213V34.47h-6.539c0,3.393-1.689,6.04-6.395,6.04
			c-4.73,0-7.047-2.912-7.047-9.167v-3.97c0-6.184,2.34-9.287,6.998-9.287c4.367,0,6.443,2.887,6.443,6.135h6.539v-0.337
			C177.307,17.484,172.432,12.359,164.275,12.359z M101.002,12.889L90.384,45.73h6.829l2.386-8.277h10.42l2.349,8.277h7.312
			l-10.594-32.842H101.002z M101.056,32.401l3.759-13.04h0.072l3.7,13.04H101.056z M204.865,12.889v13.185H191.4V12.889h-6.83V45.73
			h6.83V31.728h13.465V45.73h6.854V12.889H204.865z M119.561,18.567h9.797V45.73h6.805V18.567h9.822v-5.679h-26.424V18.567z
			 M32.815,25.313c-0.054-5.667,4.64-8.393,4.854-8.525c-2.664-3.911-6.781-4.344-8.23-4.451c-3.701-0.272-6.838,2.061-8.589,2.061
			c-1.776,0-4.516-2.002-7.421-1.949c-3.813,0.06-7.329,2.212-9.294,5.619C0.172,24.925,3.122,35.082,6.98,40.642
			c1.888,2.721,4.138,5.783,7.095,5.671c2.847-0.11,3.922-1.836,7.362-1.836c3.438,0,4.409,1.836,7.418,1.778
			c3.062-0.053,5.004-2.77,6.877-5.507c2.168-3.154,3.06-6.206,3.113-6.372C38.777,34.353,32.874,32.093,32.815,25.313z
			 M27.156,8.663c1.571-1.891,2.629-4.529,2.337-7.149c-2.262,0.088-4.996,1.502-6.618,3.392c-1.453,1.678-2.729,4.36-2.383,6.932
			C23.014,12.03,25.585,10.559,27.156,8.663z"/>
	</g>
</g>
</svg>
