<?xml version="1.0" encoding="utf-8"?>
<!-- Generator: Adobe Illustrator 17.0.0, SVG Export Plug-In . SVG Version: 6.00 Build 0)  -->
<!DOCTYPE svg PUBLIC "-//W3C//DTD SVG 1.1//EN" "http://www.w3.org/Graphics/SVG/1.1/DTD/svg11.dtd">
<svg version="1.1" id="Layer_1" xmlns="http://www.w3.org/2000/svg" xmlns:xlink="http://www.w3.org/1999/xlink" x="0px" y="0px"
	 width="438.676px" height="95.027px" viewBox="0 0 438.676 95.027" enable-background="new 0 0 438.676 95.027"
	 xml:space="preserve">
<g>
	<path fill="#F7991E" d="M58.878,94.271l10.588,0.005c0,0,2.319-0.068,3.293-1.006c1.138-1.095,0.874-2.594,0.874-2.594V63.077
		c0.095-2.041,0.484-4.952,3.987-6.256c3.505-1.305,5.879-1.429,9.662-4.43c4.234-3.36,5.121-7.211,0.558-12.684
		c-1.288-1.545-3.344-3.692-5.621-5.878C70.887,22.95,61.099,13.241,54.918,7.315c-1.05-1.006-6.466-6.571-9.198-6.571l0,0
		c-2.732,0-8.148,5.564-9.198,6.571C30.341,13.241,20.56,22.956,9.22,33.829c-2.755,2.642-3.49,3.42-5.673,6.053
		c-4.77,5.753-3.388,10.336,1.032,13.466c3.697,2.618,5.681,1.934,9.24,3.474c3.426,1.481,3.892,4.215,3.987,6.256v27.599
		c0,0-0.263,1.499,0.874,2.594c0.974,0.938,3.293,1.006,3.293,1.006l23.747-0.012l0,0l0,0.019V39.477h13.154v4.895
		c2.413-2.438,3.593-2.919,5.464-3.82c1.912-0.936,5.513-1.613,8.122-1.613c3.47,0-0.974-0.003,5.506-0.003v9.389
		c-4.59,0-8.61,0.577-10.776,1.516c-5.347,2.318-8.316,5.597-8.316,16.025v28.416L58.878,94.271z"/>
</g>
<g>
	<path fill="#F7991E" d="M80.938,75.995c0-5.128,1.906-9.492,5.72-13.09c3.812-3.597,8.456-5.396,13.938-5.396
		c5.502,0,10.174,1.811,14.01,5.433c3.787,3.623,5.684,8.071,5.684,13.345c0,5.323-1.909,9.785-5.72,13.381
		c-3.839,3.573-8.547,5.36-14.125,5.36c-5.533,0-10.165-1.823-13.901-5.469C82.807,85.962,80.938,81.44,80.938,75.995z
		 M89.649,76.141c0,3.55,0.985,6.357,2.954,8.423c2.021,2.091,4.684,3.136,7.993,3.136c3.333,0,5.996-1.033,7.99-3.099
		c1.994-2.065,2.991-4.825,2.991-8.277c0-3.451-0.997-6.21-2.991-8.277c-2.021-2.09-4.684-3.136-7.99-3.136
		c-3.26,0-5.896,1.046-7.917,3.136C90.658,70.138,89.649,72.836,89.649,76.141z"/>
	<path fill="#F7991E" d="M124.457,75.995c0-5.128,1.906-9.492,5.72-13.09c3.812-3.597,8.456-5.396,13.938-5.396
		c5.502,0,10.174,1.811,14.01,5.433c3.787,3.623,5.684,8.071,5.684,13.345c0,5.323-1.909,9.785-5.72,13.381
		c-3.839,3.573-8.547,5.36-14.125,5.36c-5.533,0-10.165-1.823-13.901-5.469C126.326,85.962,124.457,81.44,124.457,75.995z
		 M133.168,76.141c0,3.55,0.985,6.357,2.954,8.423c2.021,2.091,4.684,3.136,7.993,3.136c3.333,0,5.996-1.033,7.99-3.099
		c1.994-2.065,2.991-4.825,2.991-8.277c0-3.451-0.997-6.21-2.991-8.277c-2.021-2.09-4.684-3.136-7.99-3.136
		c-3.26,0-5.896,1.046-7.917,3.136C134.177,70.138,133.168,72.836,133.168,76.141z"/>
	<path fill="#F7991E" d="M169.72,58.493h8.523v3.281c1.639-1.652,3.042-2.771,4.202-3.354c1.236-0.607,2.791-0.912,4.657-0.912
		c4.169,0,7.463,1.75,9.887,5.25c2.675-3.5,6.299-5.25,10.868-5.25c8.308,0,12.462,4.849,12.462,14.548v21.95h-8.56V74.281
		c0-3.403-0.43-5.809-1.288-7.219c-0.885-1.434-2.336-2.151-4.354-2.151c-2.351,0-4.06,0.852-5.133,2.552
		c-1.076,1.702-1.612,4.437-1.612,8.204v18.34h-8.556V74.39c0-6.319-1.897-9.48-5.684-9.48c-2.397,0-4.145,0.863-5.245,2.589
		c-1.097,1.727-1.645,4.448-1.645,8.167v18.34h-8.523V58.493z"/>
	<path fill="#F7991E" d="M238.427,59.733h25.224V37.711h8.823v56.296h-8.823V67.718h-25.224v26.288h-8.826V37.711h8.826V59.733z"/>
	<path fill="#F7991E" d="M288.281,58.493v20.382c0,5.883,2.409,8.824,7.232,8.824c4.824,0,7.232-2.94,7.232-8.824V58.493h8.523
		v20.564c0,2.844-0.367,5.3-1.1,7.365c-0.706,1.848-1.93,3.513-3.672,4.995c-2.878,2.406-6.539,3.61-10.983,3.61
		c-4.418,0-8.069-1.203-10.947-3.61c-1.766-1.482-3.015-3.147-3.748-4.995c-0.706-1.652-1.06-4.107-1.06-7.365V58.493H288.281z"/>
	<path fill="#F7991E" d="M318.922,58.493h8.56v3.281c2.978-2.844,6.339-4.266,10.074-4.266c4.293,0,7.638,1.301,10.038,3.901
		c2.069,2.212,3.103,5.822,3.103,10.829v21.767h-8.556v-19.81c0-3.496-0.506-5.911-1.515-7.247
		c-0.988-1.359-2.778-2.039-5.381-2.039c-2.827,0-4.833,0.898-6.02,2.695c-1.16,1.772-1.742,4.867-1.742,9.286v17.115h-8.56V58.493z
		"/>
	<path fill="#F7991E" d="M367.137,66.15v27.856h-8.523V66.15h-3.636v-7.657h3.636V45.477h8.523v13.017h6.626v7.657H367.137z"/>
	<path fill="#F7991E" d="M411.732,78.182h-26.433c0.224,2.917,1.212,5.239,2.951,6.964c1.745,1.702,3.978,2.552,6.705,2.552
		c2.121,0,3.875-0.486,5.263-1.458c1.363-0.971,3.292-2.289,4.66-5.396l6.076,3.263c-0.75,2.642-1.58,4.036-2.563,5.366
		c-1.061,1.436-2.4,2.29-3.815,3.13c-1.414,0.839-2.942,1.451-4.581,1.841c-1.642,0.388-3.424,0.583-5.342,0.583
		c-5.505,0-9.923-1.701-13.256-5.105c-3.333-3.427-4.999-7.972-4.999-13.636c0-5.615,1.615-10.16,4.848-13.636
		c3.257-3.427,7.575-5.141,12.953-5.141c5.43,0,9.72,1.666,12.877,4.995c3.13,3.306,4.696,7.889,4.696,13.746L411.732,78.182z
		 M402.984,71.474c-1.188-4.375-4.051-6.563-8.596-6.563c-1.036,0-2.009,0.152-2.918,0.455c-0.909,0.305-1.736,0.742-2.481,1.313
		c-0.745,0.572-1.382,1.259-1.912,2.061c-0.53,0.802-0.933,1.714-1.212,2.735H402.984z"/>
</g>
<path fill="#F7991E" d="M417.843,58.599h8.498v3.163c1.559-1.575,2.322-1.886,3.53-2.468c1.236-0.605,3.562-1.042,5.247-1.042
	c2.241,0-0.63-0.002,3.557-0.002v6.066c-2.965,0-5.563,0.373-6.962,0.979c-3.454,1.498-5.373,3.616-5.373,10.353v18.358h-8.498
	V58.599z"/>
</svg>
